PathFileType	4	(X/Y/Z)	./resultDataOpenSim/trcMotMarkerGrf/sub09/qtm-02-08.trc
DataRate	CameraRate	NumFrames	NumMarkers	Units	OrigDataRate	OrigDataStartFrame	OrigNumFrames
250.000000	250.000000	11	24	m	250.000000	428	489
Frame#	Time	L.Toe.Tip			R.Toe.Tip			L.Ankle.Lat			R.Ankle.Lat			L.Ankle.Med			R.Ankle.Med			L.Heel			R.Heel			L.Knee.Lat			R.Knee.Lat			L.Knee.Med			R.Knee.Med			L.Thigh.Upper			R.Thigh.Upper			L.ASIS			R.ASIS			V.Sacral			L.Acromium			R.Acromium			C7			L.Elbow			R.Elbow			L.Wrist.Lat			R.Wrist.Lat
		X1	Y1	Z1	X2	Y2	Z2	X3	Y3	Z3	X4	Y4	Z4	X5	Y5	Z5	X6	Y6	Z6	X7	Y7	Z7	X8	Y8	Z8	X9	Y9	Z9	X10	Y10	Z10	X11	Y11	Z11	X12	Y12	Z12	X13	Y13	Z13	X14	Y14	Z14	X15	Y15	Z15	X16	Y16	Z16	X17	Y17	Z17	X18	Y18	Z18	X19	Y19	Z19	X20	Y20	Z20	X21	Y21	Z21	X22	Y22	Z22	X23	Y23	Z23	X24	Y24	Z24

428	1.708	1.7646662	0.061015464	-0.023370778	1.0547583	0.041997396	0.081454755	1.6091787	0.071686353	-0.050821374	0.93648927	0.11310495	0.12568121	1.6373985	0.098555586	0.040845457	0.9600796	0.14577646	0.034477126	1.5492468	0.029089871	0.0036284771	0.86159206	0.12592239	0.072731011	1.523788	0.47887359	-0.10015572	1.2261737	0.47202915	0.18505522	1.5344565	0.47883429	0.024944948	1.2142546	0.46458215	0.059464158	1.3382746	0.85233191	-0.14376432	1.2840987	0.87015003	0.22735897	1.4041001	0.94664698	-0.080315724	1.3986136	0.95285359	0.16160766	1.2286569	0.99269304	0.026048023	1.3336251	1.4013771	-0.14530391	1.3443802	1.4119364	0.18782994	1.2680446	1.4515661	0.02575093	1.1742154	1.0736427	-0.18460231	1.2399254	1.0544103	0.28013308	1.2342847	0.82836273	-0.24967881	1.453719	0.87604777	0.24969956
429	1.712	1.7669695	0.057784737	-0.021878223	1.0553009	0.04225108	0.081853918	1.6120275	0.071416463	-0.051065006	0.93757093	0.11592779	0.12585628	1.6396434	0.097721801	0.040936626	0.9634656	0.14808028	0.035093251	1.5506095	0.030199417	0.0023249531	0.86460462	0.13040218	0.072959504	1.5306634	0.47944017	-0.10049302	1.2333542	0.47066277	0.18552	1.541264	0.47932432	0.024723935	1.2223504	0.46251041	0.059741414	1.3451993	0.85184047	-0.14423556	1.2909179	0.86869376	0.22669507	1.410286	0.9464414	-0.080684208	1.4049441	0.95185699	0.16124403	1.2347938	0.99204691	0.025758037	1.3390991	1.4007512	-0.14584452	1.3499244	1.4110484	0.18746866	1.2736712	1.4509995	0.025260013	1.1805142	1.0725253	-0.18515872	1.2456742	1.0535449	0.27937031	1.2411706	0.82728503	-0.24982022	1.4586593	0.8742242	0.24972624
430	1.716	1.769081	0.054701926	-0.020408839	1.0559255	0.042524646	0.082261588	1.6147797	0.071237295	-0.051324716	0.93818	0.11890186	0.12569814	1.6416616	0.096968478	0.040979591	0.96707222	0.15050175	0.035743192	1.5519452	0.031153797	0.00084503968	0.86789989	0.13507679	0.073176441	1.5382868	0.48028919	-0.10071148	1.2409491	0.46936371	0.18613784	1.5479082	0.48007817	0.024523089	1.2305842	0.46038988	0.060026951	1.3520643	0.85159959	-0.14477147	1.297895	0.86719146	0.22603946	1.4164435	0.94635779	-0.081078164	1.4112291	0.95092649	0.16088684	1.2409625	0.99146334	0.025578767	1.3445789	1.4001948	-0.14639628	1.3554643	1.4102546	0.18710785	1.2793009	1.450534	0.024751731	1.1868496	1.0714755	-0.18570881	1.2515262	1.0527316	0.27855164	1.2481589	0.82627463	-0.24992927	1.4635169	0.87240917	0.24976522
431	1.72	1.77097	0.051656871	-0.019061224	1.0566284	0.042833444	0.082511561	1.6173171	0.071102769	-0.051542671	0.93983582	0.12223422	0.12566799	1.6435143	0.09626834	0.040992901	0.97093328	0.15303857	0.036416313	1.5532129	0.031903273	-0.0004967002	0.87150667	0.13996493	0.073340689	1.5464853	0.48128205	-0.10080844	1.2490466	0.46809122	0.18684367	1.5543874	0.4809947	0.024308595	1.2391596	0.45829651	0.060477814	1.3588344	0.85164917	-0.14536978	1.3050068	0.86568249	0.22540581	1.4225932	0.94640376	-0.081492152	1.4174506	0.95005848	0.16052136	1.2470937	0.99094842	0.025455987	1.3500754	1.3996981	-0.14694874	1.3609922	1.4095798	0.18673353	1.2848817	1.4501135	0.024223567	1.1932207	1.0705124	-0.1862596	1.2575779	1.0519698	0.27764444	1.2552476	0.82534309	-0.2500026	1.4682839	0.87061921	0.24982357
432	1.724	1.7726098	0.048734697	-0.017943749	1.0573606	0.043156724	0.082506001	1.6195594	0.070945751	-0.05166828	0.94271353	0.12588245	0.12592768	1.6451786	0.095593424	0.041036958	0.97507945	0.15567698	0.037109573	1.554353	0.032448915	-0.0015166807	0.87544519	0.14509975	0.073440985	1.5549368	0.48228468	-0.1008998	1.2573916	0.46679541	0.18752528	1.5607176	0.4819624	0.024056982	1.2482973	0.45629902	0.061223408	1.3655158	0.85197538	-0.1460252	1.312026	0.86422794	0.22481433	1.4287475	0.94657139	-0.081922655	1.4235945	0.94924101	0.16013022	1.2530549	0.99049147	0.025345172	1.3555936	1.3992645	-0.14749272	1.3665111	1.4090301	0.18633242	1.290397	1.4496834	0.02367724	1.1996032	1.0696349	-0.18683918	1.2637735	1.0512839	0.27665744	1.2624284	0.82449846	-0.25003953	1.4729561	0.86886953	0.24990268
433	1.728	1.7740042	0.046153042	-0.017115942	1.0580727	0.043476325	0.082296226	1.6214913	0.07072487	-0.051673478	0.94624821	0.12973558	0.12636791	1.6465695	0.094935965	0.041185629	0.97950972	0.15842741	0.037826409	1.5553073	0.032859837	-0.0022121721	0.87971891	0.15051599	0.073492811	1.5634209	0.48318264	-0.10107321	1.2657626	0.46551089	0.18818237	1.5669296	0.48288257	0.023771925	1.2579603	0.4543916	0.06223677	1.3721569	0.85252697	-0.14674887	1.3185006	0.86291404	0.22432179	1.4349006	0.94684679	-0.082368377	1.4296672	0.94845852	0.15970218	1.2587383	0.99006822	0.025225842	1.3611322	1.3988995	-0.14801967	1.3720174	1.4085952	0.18589609	1.2958542	1.4492312	0.023127344	1.205943	1.0688155	-0.18751127	1.2699085	1.0507174	0.27565833	1.2696984	0.82374796	-0.25004189	1.4775394	0.86716946	0.24999407
434	1.732	1.7751776	0.04411072	-0.016572884	1.058758	0.043809256	0.082053578	1.6231291	0.070447284	-0.05155684	0.95002992	0.13376509	0.12683276	1.6475944	0.094306049	0.041490448	0.98421512	0.16131939	0.038574286	1.5560564	0.0332115	-0.0026375498	0.88432964	0.15622216	0.073517555	1.5717282	0.48389007	-0.1013312	1.2742135	0.46430007	0.1889063	1.573074	0.483694	0.023475649	1.2678687	0.45249063	0.063381772	1.378805	0.85324081	-0.14755691	1.3241005	0.86179769	0.2239835	1.4410335	0.9472157	-0.082829246	1.4356908	0.94770028	0.1592353	1.2642033	0.98964239	0.025080131	1.3666929	1.3985997	-0.14851795	1.377496	1.4082601	0.18542644	1.3012597	1.4487789	0.022588493	1.2121848	1.0680168	-0.18833512	1.2757802	1.0503019	0.27469338	1.2770634	0.82309511	-0.25001646	1.4820468	0.86551901	0.25008623
435	1.736	1.7761532	0.042643371	-0.016225724	1.0594732	0.044214638	0.08192495	1.6244763	0.070159812	-0.05134405	0.95394983	0.13796003	0.12726331	1.6482113	0.093715978	0.041950883	0.98920477	0.16437714	0.039359794	1.5566312	0.03352376	-0.0028421464	0.88928627	0.16217425	0.073532995	1.5796054	0.48435794	-0.10162286	1.282849	0.46316218	0.18976135	1.5791953	0.48438613	0.023177831	1.2778164	0.45051298	0.064622117	1.3854393	0.85405157	-0.14843721	1.329184	0.86080665	0.22371686	1.4471263	0.9476634	-0.083309951	1.4416888	0.94696697	0.15873098	1.2696935	0.98917998	0.024901884	1.3722798	1.3983556	-0.1489743	1.382941	1.4080119	0.18493912	1.3066141	1.4483405	0.022070523	1.2183392	1.0672346	-0.18927001	1.2813188	1.0500369	0.27374664	1.2845305	0.82253672	-0.24997384	1.4864835	0.86391336	0.25017627
436	1.74	1.7769554	0.041628491	-0.015918566	1.0603264	0.044770243	0.081943954	1.625526	0.069926551	-0.051076926	0.95804614	0.14228726	0.12768827	1.6485037	0.093180615	0.042497536	0.99449695	0.16760355	0.040174542	1.557088	0.033776309	-0.0028998367	0.89458803	0.16828117	0.073544772	1.5868749	0.48458802	-0.10191276	1.2916741	0.46206252	0.19074879	1.5853015	0.48498432	0.022857252	1.2878119	0.44843361	0.066047664	1.3919668	0.85489042	-0.14934396	1.3346986	0.85977446	0.22329918	1.4531619	0.94817684	-0.083818534	1.4476717	0.94626422	0.15818842	1.2754192	0.98868581	0.024698533	1.3778945	1.398161	-0.14938346	1.3883544	1.4078435	0.18445826	1.3119285	1.4479134	0.021586901	1.2244953	1.0665114	-0.19016469	1.286652	1.0498923	0.27281417	1.2921006	0.8220655	-0.24992417	1.4908452	0.86235372	0.25027139
437	1.744	1.777621	0.040902208	-0.015538634	1.0614311	0.04553229	0.082069653	1.6263058	0.069800981	-0.050785823	0.96229712	0.14677461	0.1281529	1.6486773	0.092722406	0.043021368	1.0001066	0.17096826	0.040990727	1.5574727	0.033964398	-0.0029165563	0.90021465	0.17443893	0.073528894	1.5935143	0.48463121	-0.10222126	1.300657	0.4609847	0.19182897	1.5913761	0.48551432	0.022479581	1.2979365	0.44627957	0.067642609	1.3983041	0.85568971	-0.15023365	1.3412273	0.85860873	0.22258727	1.4591297	0.94874493	-0.08435797	1.4536337	0.94559422	0.15760942	1.2813931	0.98821192	0.024474427	1.3835343	1.398016	-0.14975501	1.3937248	1.4077544	0.18400356	1.3172251	1.4475089	0.021145323	1.2307345	1.065893	-0.19089512	1.2920481	1.0498291	0.27194302	1.2997661	0.82167632	-0.24987185	1.4951329	0.8608529	0.25037801
438	1.748	1.7781828	0.040350852	-0.015112053	1.0628539	0.046512472	0.082254546	1.6268945	0.069790749	-0.050496173	0.96644942	0.15159055	0.12870594	1.6489033	0.092355804	0.043439302	1.0060459	0.17440403	0.041774888	1.5578032	0.034110877	-0.0029810121	0.90615133	0.18056271	0.073424252	1.5996183	0.48455654	-0.10259086	1.3097667	0.45992951	0.19294605	1.5974114	0.48597845	0.02202469	1.3082363	0.44410582	0.069173064	1.4044323	0.85639774	-0.15108819	1.3484338	0.85736216	0.2216588	1.4650365	0.94935399	-0.0849234	1.4595603	0.94495856	0.15700121	1.2875051	0.98781537	0.024227404	1.3891935	1.39792	-0.15010664	1.3990282	1.4077417	0.18358012	1.3225192	1.4471625	0.020730916	1.2370606	1.0653869	-0.19146391	1.2976891	1.0498332	0.2711626	1.3075151	0.82136566	-0.24981485	1.4993584	0.85942797	0.25049517
